<svg xmlns="http://www.w3.org/2000/svg" data-name="Layer 1" viewBox="0 0 512 512"><path fill="#272a33" d="M119.232 276.512a7.5 7.5 0 1 0 15 0v-13.355h15v24.135a7.5 7.5 0 0 0 15 0v-24.135h7.5a7.5 7.5 0 0 0 0-15h-84.72a29 29 0 1 0 0 15h32.22ZM59 269.657a14 14 0 1 1 14-14 14.016 14.016 0 0 1-14 14Zm372.627-109.254a80.373 80.373 0 1 0-80.373-80.373 80.464 80.464 0 0 0 80.373 80.373Zm0-15a64.977 64.977 0 0 1-35.897-10.777 37.747 37.747 0 0 1 71.783.007 64.977 64.977 0 0 1-35.886 10.77ZM414.36 76.317a17.267 17.267 0 1 1 17.267 17.267 17.287 17.287 0 0 1-17.267-17.267Zm17.267-61.66a65.33 65.33 0 0 1 47.979 109.716 52.977 52.977 0 0 0-24.93-25.507 32.266 32.266 0 1 0-46.063.037 53.003 53.003 0 0 0-24.956 25.48 65.33 65.33 0 0 1 47.97-109.726Zm-99.144 409.992L298.16 396.72a7.5 7.5 0 1 0-9.467 11.635l18.798 15.296H134.616a22.526 22.526 0 0 1-22.5-22.5v-18.378a7.5 7.5 0 0 0-15 0v18.378a37.542 37.542 0 0 0 37.5 37.5h173.202l-19.126 15.562a7.5 7.5 0 1 0 9.467 11.635l35.328-28.747a7.499 7.499 0 0 0 2.767-5.817c0-.021-.004-.042-.004-.063 0-.024.004-.047.004-.07a7.492 7.492 0 0 0-3.77-6.502Zm99.144-249.498A80.373 80.373 0 1 0 512 255.524a80.464 80.464 0 0 0-80.373-80.373Zm0 145.746a64.976 64.976 0 0 1-35.897-10.777 37.747 37.747 0 0 1 71.783.007 64.976 64.976 0 0 1-35.886 10.77ZM414.36 251.81a17.267 17.267 0 1 1 17.267 17.267 17.287 17.287 0 0 1-17.267-17.267Zm65.246 48.055a52.977 52.977 0 0 0-24.93-25.506 32.266 32.266 0 1 0-46.063.037 53.003 53.003 0 0 0-24.956 25.479 65.373 65.373 0 1 1 95.949-.01Zm-47.979 50.778A80.373 80.373 0 1 0 512 431.017a80.464 80.464 0 0 0-80.373-80.373Zm0 145.746a64.976 64.976 0 0 1-35.897-10.777 37.747 37.747 0 0 1 71.783.007 64.976 64.976 0 0 1-35.886 10.77Zm-17.267-69.086a17.267 17.267 0 1 1 17.267 17.267 17.286 17.286 0 0 1-17.267-17.267Zm65.246 48.056a52.977 52.977 0 0 0-24.93-25.507 32.266 32.266 0 1 0-46.063.038 53.003 53.003 0 0 0-24.956 25.479 65.373 65.373 0 1 1 95.949-.01ZM209.232 255.657a104.616 104.616 0 1 0-104.616 104.616 104.735 104.735 0 0 0 104.616-104.616Zm-194.232 0a89.616 89.616 0 1 1 89.616 89.616A89.718 89.718 0 0 1 15 255.657ZM333.487 74.213 298.16 45.466a7.5 7.5 0 1 0-9.467 11.635l19.126 15.562H134.616a37.542 37.542 0 0 0-37.5 37.5v18.378a7.5 7.5 0 0 0 15 0v-18.378a22.526 22.526 0 0 1 22.5-22.5H307.49l-18.798 15.296a7.5 7.5 0 1 0 9.467 11.634l34.324-27.929a7.492 7.492 0 0 0 3.77-6.5l-.002-.07c0-.022.003-.043.003-.064a7.498 7.498 0 0 0-2.767-5.817Zm2.692 180.442a7.48 7.48 0 0 0-.102-.606c-.016-.072-.037-.142-.055-.214a7.311 7.311 0 0 0-.16-.556c-.024-.075-.053-.149-.081-.223a7.439 7.439 0 0 0-.32-.743q-.12-.237-.254-.465c-.046-.078-.092-.156-.141-.232a7.474 7.474 0 0 0-.3-.428c-.053-.072-.104-.145-.16-.216a7.462 7.462 0 0 0-.385-.439c-.046-.049-.088-.1-.136-.148a7.525 7.525 0 0 0-.585-.534l-.013-.011-35.328-28.747a7.5 7.5 0 1 0-9.467 11.635l18.962 15.429h-75.922a7.5 7.5 0 0 0 0 15h75.922l-18.962 15.43a7.5 7.5 0 1 0 9.467 11.634l35.328-28.747.013-.01a7.51 7.51 0 0 0 .585-.535c.048-.047.09-.1.136-.148.133-.142.263-.287.385-.44.056-.07.107-.143.16-.215.105-.14.205-.281.3-.428.049-.077.095-.154.141-.232q.134-.228.253-.465a7.433 7.433 0 0 0 .32-.743c.029-.074.058-.148.083-.223a7.34 7.34 0 0 0 .159-.556c.018-.072.039-.142.055-.214.043-.2.075-.402.102-.606.009-.064.022-.126.03-.19a7.27 7.27 0 0 0 0-1.623c-.008-.065-.021-.127-.03-.191Z"/></svg>