<svg xmlns="http://www.w3.org/2000/svg" viewBox="0 0 33.78 31.77"><g data-name="Layer 2"><g data-name="Layer 1"><path d="M24 21.7a5 5 0 0 0-1.65.29l-.15-.19-2.89-2.88 9.22-9.22a1.71 1.71 0 0 0-2.42-2.42l-9.22 9.22-9.22-9.22A1.71 1.71 0 0 0 5.25 9.7l9.22 9.22-2.89 2.88-.15.19a5 5 0 1 0 2.66 2.16l2.8-2.81 2.8 2.81A5 5 0 1 0 24 21.7Zm-14.22 8a3 3 0 1 1 3-3 3 3 0 0 1-3 3.01Zm14.22 0a3 3 0 1 1 3-3 3 3 0 0 1-3 3.01Z"/><path d="M2.74 14.82V2.74H31v12.08h2.74V2.49A2.5 2.5 0 0 0 31.28 0H2.49A2.5 2.5 0 0 0 0 2.49v12.33Z"/></g></g></svg>