<svg xmlns="http://www.w3.org/2000/svg" width="16" height="16"><path d="M7 0C3.14 0 0 3.14 0 7s3.14 7 7 7c1.75 0 3.348-.651 4.576-1.717l3.567 3.567a.5.5 0 1 0 .707-.707l-3.567-3.567A6.962 6.962 0 0 0 14 7c0-3.86-3.14-7-7-7zm0 1c3.32 0 6 2.68 6 6s-2.68 6-6 6-6-2.68-6-6 2.68-6 6-6z" color="#000" font-family="sans-serif" font-weight="400" overflow="visible" style="line-height:normal;text-indent:0;text-align:start;text-decoration-line:none;text-decoration-style:solid;text-decoration-color:#000;text-transform:none;block-progression:tb;white-space:normal;isolation:auto;mix-blend-mode:normal;solid-color:#000;solid-opacity:1"/></svg>